<?xml version="1.0" standalone="no"?>
<!DOCTYPE svg PUBLIC "-//W3C//DTD SVG 20010904//EN"
 "http://www.w3.org/TR/2001/REC-SVG-20010904/DTD/svg10.dtd">
<svg version="1.0" xmlns="http://www.w3.org/2000/svg"
 width="512.000000pt" height="512.000000pt" viewBox="0 0 512.000000 512.000000"
 preserveAspectRatio="xMidYMid meet">
<metadata>
Created by potrace 1.14, written by Peter Selinger 2001-2017
</metadata>
<g transform="translate(0.000000,512.000000) scale(0.100000,-0.100000)"
fill="#000000" stroke="none">
<path d="M2316 5094 c-85 -31 -146 -101 -190 -217 -35 -92 -61 -123 -136 -160
l-65 -32 -210 0 c-205 0 -211 -1 -254 -25 -95 -54 -102 -132 -27 -291 24 -53
90 -206 145 -340 121 -298 172 -409 198 -431 33 -30 144 -75 238 -96 143 -34
273 -45 444 -39 132 4 174 9 274 36 119 31 216 72 273 116 50 39 61 75 67 230
4 116 11 163 40 275 41 158 86 280 152 411 40 79 49 105 53 165 8 128 -39 171
-176 161 -74 -6 -112 -20 -252 -97 -112 -61 -164 -34 -226 115 -31 73 -50 102
-99 150 -82 83 -156 103 -249 69z"/>
<path d="M3139 3380 c-104 -85 -243 -142 -434 -176 -142 -25 -464 -26 -589 -1
-120 24 -194 50 -298 104 l-86 46 -74 -28 c-273 -104 -552 -289 -788 -525
-207 -207 -339 -390 -455 -635 -139 -291 -194 -553 -182 -860 30 -722 346
-1055 1137 -1194 316 -55 625 -75 1190 -75 563 0 858 19 1180 75 377 66 662
185 838 353 57 53 139 168 181 251 126 253 166 671 95 1013 -111 539 -543
1101 -1107 1441 -163 98 -495 242 -555 241 -10 -1 -33 -14 -53 -30z m-561
-613 c6 -7 13 -58 14 -113 l3 -99 60 -7 c74 -8 216 -52 244 -76 l20 -17 -34
-114 c-19 -63 -38 -118 -44 -124 -6 -6 -35 1 -83 21 -135 56 -304 67 -385 25
-69 -36 -93 -132 -46 -185 31 -35 113 -82 233 -133 166 -70 217 -101 291 -175
75 -74 102 -127 118 -227 34 -221 -100 -423 -328 -494 l-56 -17 -5 -113 c-3
-63 -9 -120 -13 -126 -9 -14 -190 -19 -221 -7 -13 5 -16 25 -16 114 0 118 -1
120 -63 120 -74 1 -289 71 -316 104 -10 12 49 240 66 257 6 6 36 -3 77 -22 97
-45 197 -69 296 -69 106 0 152 13 197 54 31 28 37 40 41 88 8 102 -35 145
-221 224 -159 67 -235 106 -295 153 -152 120 -194 321 -104 497 48 94 165 186
278 219 l54 16 0 104 c0 135 0 135 129 135 69 0 102 -4 109 -13z"/>
</g>
</svg>
